# xmcd
#
# Track frame offsets:
#	150
#	22842
#	42556
#	66267
#	86400
#	109174
#	134250
#	155555
#	184597
#	212763
#	232773
#	249952
#	271809
#
# Disc length: 3783 seconds
#
# Revision: 1
# Processed by: cddbd v1.5.2PL0 Copyright (c) Steve Scherf et al.
# Submitted via: audiograbber 1.83.01
#
DISCID=a50ec50d
DTITLE=Whiskey Foxtrot - Hard Lines and Headlights
DYEAR=2020
DGENRE=Country
TTITLE0=Fulton County Night
TTITLE1=Hard Lines and Bitter Pills
TTITLE2=Breeze
TTITLE3=Turn off the Headlights
TTITLE4=First to Know
TTITLE5=San Isidro
TTITLE6=Six Seconds Six Days
TTITLE7=I Don't Wanna Be a Legend
TTITLE8=Big Top Town
TTITLE9=The Broken End
TTITLE10=Last One Out
TTITLE11=El Camino
TTITLE12=Silver Ball Space Mission
EXTD=
EXTT0=
EXTT1=
EXTT2=
EXTT3=
EXTT4=
EXTT5=
EXTT6=
EXTT7=
EXTT8=
EXTT9=
EXTT10=
EXTT11=
EXTT12=
PLAYORDER=
